<?xml version="1.0" encoding="UTF-8"?>
<svg xmlns="http://www.w3.org/2000/svg" version="1.1" viewBox="0 0 101.8 92.8">
  <defs>
    <style>
      .cls-1 {
        fill: #fff;
      }
    </style>
  </defs>
  <!-- Generator: Adobe Illustrator 28.6.0, SVG Export Plug-In . SVG Version: 1.2.0 Build 709)  -->
  <g>
    <g id="Layer_1">
      <g>
        <path class="cls-1" d="M80.5,40l-10.1-3c-12.6-3.7-22.5-13.6-26.2-26.2l-3-10.1-2.8,9.6c-3.8,13.1-14.3,23.2-27.5,26.6l-8,2,10.1,3c12.6,3.7,22.5,13.6,26.2,26.2l3,10.1,2-8c3.4-13.2,13.5-23.7,26.6-27.5l9.6-2.8Z"/>
        <path class="cls-1" d="M98.8,69.6l-.9-.3c-10.5-3.1-18.7-11.3-21.8-21.8l-.3-.9-.3,1c-3.1,10.5-11.5,18.7-22.1,21.4l.9.3c10.5,3.1,18.7,11.3,21.8,21.8l.3.9c2.7-10.6,10.9-19.1,21.4-22.1l1-.3Z"/>
      </g>
    </g>
  </g>
</svg>